<?xml version="1.0" encoding="utf-8"?>
<!-- Generator: Adobe Illustrator 25.1.0, SVG Export Plug-In . SVG Version: 6.00 Build 0)  -->
<svg version="1.1" id="Capa_1" xmlns="http://www.w3.org/2000/svg" xmlns:xlink="http://www.w3.org/1999/xlink" x="0px" y="0px"
	 viewBox="0 0 248.02 63.95" style="enable-background:new 0 0 248.02 63.95;" xml:space="preserve">
<style type="text/css">
	.st0{fill:#4C4E53;}
	.st1{fill:#397DDA;}
	.st2{fill:#FFFFFF;}
	.st3{fill:#CAD5F4;}
	.st4{fill:#A4BBF0;}
</style>
<g>
	<g>
		<path class="st0" d="M74.37,20.97v-0.27c0-7.42,5.2-12.48,12.14-12.48c5.88,0,10.26,2.87,10.84,8.89h-5.68
			c-0.41-2.94-2.05-4.51-5.13-4.51c-3.86,0-6.33,3.01-6.33,8.07v0.27c0,5.06,2.33,8,6.36,8c3.04,0,5.16-1.54,5.61-4.68h5.44
			c-0.62,6.05-4.96,9.16-10.98,9.16C78.65,33.41,74.37,28.49,74.37,20.97z"/>
		<path class="st0" d="M98.83,24.32v-0.27c0-5.64,4-9.3,9.2-9.3c4.62,0,8.72,2.7,8.72,9.1v1.37h-12.89
			c0.14,2.98,1.74,4.68,4.45,4.68c2.29,0,3.42-0.99,3.73-2.5h4.68c-0.58,3.86-3.66,6.02-8.55,6.02
			C102.76,33.41,98.83,30.03,98.83,24.32z M111.92,22.16c-0.17-2.7-1.54-4-3.9-4c-2.22,0-3.73,1.47-4.1,4H111.92z"/>
		<path class="st0" d="M119.14,15.15h4.96v2.84c0.89-1.78,2.84-3.25,5.81-3.25c3.52,0,6.02,2.12,6.02,6.91v11.39h-4.96V22.37
			c0-2.43-0.96-3.59-3.15-3.59c-2.12,0-3.73,1.3-3.73,3.93v10.33h-4.96V15.15z"/>
		<path class="st0" d="M140.07,27.74v-9.06h-2.29v-3.52h2.29v-3.86h4.92v3.86h3.76v3.52h-3.76v8.62c0,1.44,0.72,2.12,1.98,2.12
			c0.75,0,1.3-0.1,1.88-0.34v3.83c-0.68,0.24-1.68,0.48-3.01,0.48C142.09,33.38,140.07,31.46,140.07,27.74z"/>
		<path class="st0" d="M151.36,15.15h4.96v3.42c1.13-2.39,2.87-3.66,5.78-3.69v4.62c-3.66-0.03-5.78,1.16-5.78,4.58v8.96h-4.96
			V15.15z"/>
		<path class="st0" d="M163.05,24.28v-0.27c0-5.61,4.07-9.27,9.44-9.27c5.37,0,9.4,3.59,9.4,9.16v0.27c0,5.64-4.07,9.23-9.44,9.23
			C167.12,33.41,163.05,29.86,163.05,24.28z M176.87,24.22v-0.24c0-3.42-1.61-5.47-4.38-5.47c-2.74,0-4.38,1.98-4.38,5.4v0.27
			c0,3.42,1.57,5.47,4.38,5.47C175.26,29.65,176.87,27.6,176.87,24.22z"/>
		<path class="st1" d="M191.33,23.5V8.59h5.57v14.57c0,4.07,1.2,5.85,4.55,5.85c3.28,0,4.72-1.57,4.72-6.05V8.59h5.57v14.7
			c0,6.67-3.73,10.12-10.33,10.12C194.99,33.41,191.33,29.99,191.33,23.5z"/>
		<path class="st1" d="M214.69,20.97v-0.27c0-7.42,5.2-12.48,12.14-12.48c5.88,0,10.26,2.87,10.84,8.89h-5.68
			c-0.41-2.94-2.05-4.51-5.13-4.51c-3.86,0-6.33,3.01-6.33,8.07v0.27c0,5.06,2.33,8,6.36,8c3.04,0,5.16-1.54,5.61-4.68h5.44
			c-0.62,6.05-4.96,9.16-10.98,9.16C218.97,33.41,214.69,28.49,214.69,20.97z"/>
		<path class="st0" d="M75.16,41.57h2.9l5.29,13.33l5.12-13.33h2.87v17.12h-2.08V44.27l-5.67,14.41h-0.65l-5.87-14.41v14.41h-1.92
			V41.57z"/>
		<path class="st0" d="M93.98,52.56v-0.19c0-3.78,2.42-6.42,5.87-6.42c2.9,0,5.63,1.75,5.63,6.22v0.65h-9.43
			c0.1,2.85,1.46,4.43,4.02,4.43c1.94,0,3.06-0.72,3.33-2.18h1.99c-0.43,2.51-2.51,3.83-5.34,3.83
			C96.49,58.9,93.98,56.41,93.98,52.56z M103.43,51.22c-0.19-2.59-1.53-3.61-3.59-3.61c-2.04,0-3.4,1.39-3.73,3.61H103.43z"/>
		<path class="st0" d="M106.98,52.68v-0.19c0-3.83,2.39-6.54,5.84-6.54c2.08,0,3.38,1.01,4.09,2.23v-8h1.99v18.51h-1.99v-2.15
			c-0.72,1.22-2.47,2.37-4.29,2.37C109.35,58.9,106.98,56.58,106.98,52.68z M116.98,52.51v-0.19c0-3.21-1.53-4.72-3.97-4.72
			c-2.49,0-3.97,1.75-3.97,4.79v0.19c0,3.16,1.7,4.67,3.81,4.67C115.16,57.25,116.98,55.72,116.98,52.51z"/>
		<path class="st0" d="M122.01,42.24c0-0.72,0.6-1.32,1.32-1.32s1.32,0.6,1.32,1.32c0,0.72-0.6,1.32-1.32,1.32
			S122.01,42.96,122.01,42.24z M122.37,46.17h1.99v12.52h-1.99V46.17z"/>
		<path class="st0" d="M126.89,52.56v-0.19c0-3.83,2.73-6.42,6.08-6.42c2.61,0,5.05,1.2,5.43,4.38h-1.96
			c-0.31-1.99-1.75-2.73-3.47-2.73c-2.27,0-4.02,1.82-4.02,4.76v0.19c0,3.06,1.68,4.69,4.09,4.69c1.77,0,3.38-1.03,3.59-3.06h1.84
			c-0.26,2.71-2.44,4.72-5.46,4.72C129.53,58.9,126.89,56.44,126.89,52.56z"/>
		<path class="st0" d="M140.56,42.24c0-0.72,0.6-1.32,1.32-1.32c0.72,0,1.32,0.6,1.32,1.32c0,0.72-0.6,1.32-1.32,1.32
			C141.16,43.56,140.56,42.96,140.56,42.24z M140.92,46.17h1.99v12.52h-1.99V46.17z"/>
		<path class="st0" d="M145.45,52.53v-0.19c0-3.76,2.61-6.39,6.15-6.39c3.54,0,6.15,2.61,6.15,6.37v0.19c0,3.78-2.61,6.39-6.18,6.39
			C148.01,58.9,145.45,56.2,145.45,52.53z M155.69,52.53v-0.17c0-2.9-1.6-4.76-4.09-4.76c-2.51,0-4.09,1.87-4.09,4.74v0.19
			c0,2.85,1.56,4.72,4.09,4.72C154.11,57.25,155.69,55.36,155.69,52.53z M152.2,40.49h2.49l-2.49,3.52h-1.48L152.2,40.49z"/>
		<path class="st0" d="M160.24,46.17h1.99v1.99c0.57-1.17,1.96-2.2,4.02-2.2c2.59,0,4.41,1.41,4.41,5.05v7.69h-1.99v-7.83
			c0-2.2-0.93-3.18-2.94-3.18c-1.84,0-3.5,1.17-3.5,3.42v7.59h-1.99V46.17z"/>
		<path class="st0" d="M179.13,51.17h5.12v1.87h-5.12V51.17z"/>
		<path class="st0" d="M192.99,41.57h2.9l5.29,13.33l5.12-13.33h2.87v17.12h-2.08V44.27l-5.67,14.41h-0.65l-5.87-14.41v14.41h-1.92
			V41.57z"/>
		<path class="st0" d="M213,41.57h2.08v17.12H213V41.57z"/>
		<path class="st0" d="M218.91,41.57h4.52c5.89,0,8.67,3.64,8.67,8.4v0.22c0,4.74-2.73,8.5-8.71,8.5h-4.48V41.57z M223.34,56.99
			c4.4,0,6.61-2.63,6.61-6.82v-0.19c0-3.95-1.91-6.73-6.63-6.73H221v13.74H223.34z"/>
		<path class="st0" d="M234.98,41.57h9.98v1.7h-7.9v5.82h6.37v1.7h-6.37v6.2h8.33v1.7h-10.41V41.57z"/>
	</g>
	<path class="st1" d="M59.52,31.92c0-16.43-13.32-29.76-29.76-29.76C13.32,2.17,0,15.49,0,31.92c0,16.44,13.32,29.76,29.76,29.76
		C46.19,61.68,59.52,48.36,59.52,31.92z"/>
	<g>
		<path class="st2" d="M22.11,17.4h4.32v4.16c1.25-2.55,4.21-4.63,8.12-4.63c3.49,0,6.56,1.46,7.96,5.1c1.87-3.54,5.93-5.1,9.31-5.1
			c4.89,0,9.16,2.91,9.16,10.83v16.86h-4.32V27.45c0-4.79-2.03-6.77-5.78-6.77c-3.54,0-7.18,2.39-7.18,7.29v16.66h-4.32V27.45
			c0-4.79-2.03-6.77-5.78-6.77c-3.54,0-7.18,2.39-7.18,7.29v16.66h-4.32V17.4z"/>
	</g>
	<g>
		<path class="st2" d="M8.91,39.98c0-2,1.62-3.62,3.62-3.62c2,0,3.62,1.62,3.62,3.62c0,2-1.62,3.62-3.62,3.62
			C10.53,43.6,8.91,41.98,8.91,39.98z"/>
		<path class="st3" d="M8.91,30.67c0-2,1.62-3.62,3.62-3.62c2,0,3.62,1.62,3.62,3.62c0,2-1.62,3.62-3.62,3.62
			C10.53,34.29,8.91,32.67,8.91,30.67z"/>
		<path class="st4" d="M8.91,21.35c0-2,1.62-3.62,3.62-3.62c2,0,3.62,1.62,3.62,3.62c0,2-1.62,3.62-3.62,3.62
			C10.53,24.97,8.91,23.35,8.91,21.35z"/>
	</g>
</g>
</svg>
